<svg width="168" height="40" viewBox="0 0 168 40" fill="none" xmlns="http://www.w3.org/2000/svg">
  <path d="M29.5 0C23.7 0 19 4.7 19 10.5C19 16.3 23.7 21 29.5 21C35.3 21 40 16.3 40 10.5C40 4.7 35.3 0 29.5 0Z" fill="#00A0DF"/>
  <path d="M10.5 19C4.7 19 0 23.7 0 29.5C0 35.3 4.7 40 10.5 40C16.3 40 21 35.3 21 29.5C21 23.7 16.3 19 10.5 19Z" fill="#8DC63F"/>
  <path d="M29.5 19C23.7 19 19 23.7 19 29.5C19 35.3 23.7 40 29.5 40C35.3 40 40 35.3 40 29.5C40 23.7 35.3 19 29.5 19Z" fill="#1E3764"/>
  <path d="M10.5 0C4.7 0 0 4.7 0 10.5C0 16.3 4.7 21 10.5 21C16.3 21 21 16.3 21 10.5C21 4.7 16.3 0 10.5 0Z" fill="#8DC63F"/>
  <path d="M48.5 15.8H51.9C52 16.7 52.3 17.4 52.8 17.9C53.3 18.4 54 18.6 54.9 18.6C55.7 18.6 56.4 18.4 56.9 18C57.4 17.6 57.6 17.1 57.6 16.5C57.6 15.9 57.4 15.4 57 15.1C56.6 14.8 55.9 14.5 54.9 14.2L53.2 13.7C52 13.3 51.1 12.8 50.5 12.1C49.9 11.4 49.6 10.5 49.6 9.5C49.6 8.2 50.1 7.1 51.1 6.3C52.1 5.5 53.3 5.1 54.9 5.1C56.5 5.1 57.8 5.5 58.7 6.3C59.6 7.1 60.1 8.2 60.2 9.6H56.8C56.7 8.9 56.5 8.3 56 8C55.5 7.6 54.9 7.4 54.1 7.4C53.4 7.4 52.8 7.6 52.4 7.9C52 8.2 51.8 8.7 51.8 9.2C51.8 9.7 52 10.1 52.4 10.4C52.8 10.7 53.4 11 54.3 11.2L56 11.7C57.3 12.1 58.3 12.6 58.9 13.3C59.5 14 59.8 14.9 59.8 16C59.8 17.4 59.3 18.5 58.2 19.3C57.1 20.1 55.8 20.5 54.1 20.5C52.4 20.5 51 20.1 50 19.2C49 18.3 48.5 17.2 48.5 15.8Z" fill="black"/>
  <path d="M67.3 20.3C65.8 20.3 64.6 19.9 63.7 19C62.8 18.1 62.3 16.9 62.3 15.3V5.3H64.6V15.2C64.6 16.1 64.8 16.8 65.3 17.3C65.8 17.8 66.4 18 67.3 18C68.2 18 68.8 17.8 69.3 17.3C69.8 16.8 70 16.1 70 15.2V5.3H72.3V15.3C72.3 16.9 71.8 18.1 70.9 19C70 19.9 68.8 20.3 67.3 20.3Z" fill="black"/>
  <path d="M81.8 5.3L77.1 20.1H74.7L70 5.3H72.5L76 17.2L79.5 5.3H81.8Z" fill="black"/>
  <path d="M89.3 7.6H85.2V5.3H95.7V7.6H91.6V20.1H89.3V7.6Z" fill="black"/>
  <path d="M103.4 20.3C101.9 20.3 100.7 19.9 99.8 19C98.9 18.1 98.4 16.9 98.4 15.3V5.3H100.7V15.2C100.7 16.1 100.9 16.8 101.4 17.3C101.9 17.8 102.5 18 103.4 18C104.3 18 104.9 17.8 105.4 17.3C105.9 16.8 106.1 16.1 106.1 15.2V5.3H108.4V15.3C108.4 16.9 107.9 18.1 107 19C106.1 19.9 104.9 20.3 103.4 20.3Z" fill="black"/>
  <path d="M116.3 20.1H114V5.3H118.1C119.7 5.3 120.9 5.7 121.8 6.4C122.7 7.1 123.1 8.1 123.1 9.4C123.1 10.3 122.9 11.1 122.4 11.7C121.9 12.3 121.3 12.8 120.4 13L123.5 20.1H121L118.1 13.3H116.3V20.1ZM116.3 11.1H118.1C118.9 11.1 119.5 10.9 119.9 10.6C120.3 10.3 120.5 9.8 120.5 9.2C120.5 8.6 120.3 8.1 119.9 7.8C119.5 7.5 118.9 7.3 118.1 7.3H116.3V11.1Z" fill="black"/>
  <path d="M131.2 20.1H128.9V5.3H131.2V11.5H136.9V5.3H139.2V20.1H136.9V13.8H131.2V20.1Z" fill="black"/>
  <path d="M147.9 20.1H145.6V5.3H147.9V20.1Z" fill="black"/>
  <path d="M156.8 20.1H154.5V7.6H150.4V5.3H160.9V7.6H156.8V20.1Z" fill="black"/>
  <path d="M168 20.1H165.7V5.3H168V20.1Z" fill="black"/>
  <path d="M48.5 34.8H51.9C52 35.7 52.3 36.4 52.8 36.9C53.3 37.4 54 37.6 54.9 37.6C55.7 37.6 56.4 37.4 56.9 37C57.4 36.6 57.6 36.1 57.6 35.5C57.6 34.9 57.4 34.4 57 34.1C56.6 33.8 55.9 33.5 54.9 33.2L53.2 32.7C52 32.3 51.1 31.8 50.5 31.1C49.9 30.4 49.6 29.5 49.6 28.5C49.6 27.2 50.1 26.1 51.1 25.3C52.1 24.5 53.3 24.1 54.9 24.1C56.5 24.1 57.8 24.5 58.7 25.3C59.6 26.1 60.1 27.2 60.2 28.6H56.8C56.7 27.9 56.5 27.3 56 27C55.5 26.6 54.9 26.4 54.1 26.4C53.4 26.4 52.8 26.6 52.4 26.9C52 27.2 51.8 27.7 51.8 28.2C51.8 28.7 52 29.1 52.4 29.4C52.8 29.7 53.4 30 54.3 30.2L56 30.7C57.3 31.1 58.3 31.6 58.9 32.3C59.5 33 59.8 33.9 59.8 35C59.8 36.4 59.3 37.5 58.2 38.3C57.1 39.1 55.8 39.5 54.1 39.5C52.4 39.5 51 39.1 50 38.2C49 37.3 48.5 36.2 48.5 34.8Z" fill="black"/>
  <path d="M67.3 39.3C65.8 39.3 64.6 38.9 63.7 38C62.8 37.1 62.3 35.9 62.3 34.3V24.3H64.6V34.2C64.6 35.1 64.8 35.8 65.3 36.3C65.8 36.8 66.4 37 67.3 37C68.2 37 68.8 36.8 69.3 36.3C69.8 35.8 70 35.1 70 34.2V24.3H72.3V34.3C72.3 35.9 71.8 37.1 70.9 38C70 38.9 68.8 39.3 67.3 39.3Z" fill="black"/>
  <path d="M81.8 24.3L77.1 39.1H74.7L70 24.3H72.5L76 36.2L79.5 24.3H81.8Z" fill="black"/>
  <path d="M89.3 26.6H85.2V24.3H95.7V26.6H91.6V39.1H89.3V26.6Z" fill="black"/>
  <path d="M103.4 39.3C101.9 39.3 100.7 38.9 99.8 38C98.9 37.1 98.4 35.9 98.4 34.3V24.3H100.7V34.2C100.7 35.1 100.9 35.8 101.4 36.3C101.9 36.8 102.5 37 103.4 37C104.3 37 104.9 36.8 105.4 36.3C105.9 35.8 106.1 35.1 106.1 34.2V24.3H108.4V34.3C108.4 35.9 107.9 37.1 107 38C106.1 38.9 104.9 39.3 103.4 39.3Z" fill="black"/>
  <path d="M116.3 39.1H114V24.3H118.1C119.7 24.3 120.9 24.7 121.8 25.4C122.7 26.1 123.1 27.1 123.1 28.4C123.1 29.3 122.9 30.1 122.4 30.7C121.9 31.3 121.3 31.8 120.4 32L123.5 39.1H121L118.1 32.3H116.3V39.1ZM116.3 30.1H118.1C118.9 30.1 119.5 29.9 119.9 29.6C120.3 29.3 120.5 28.8 120.5 28.2C120.5 27.6 120.3 27.1 119.9 26.8C119.5 26.5 118.9 26.3 118.1 26.3H116.3V30.1Z" fill="black"/>
  <path d="M131.2 39.1H128.9V24.3H131.2V30.5H136.9V24.3H139.2V39.1H136.9V32.8H131.2V39.1Z" fill="black"/>
  <path d="M147.9 39.1H145.6V24.3H147.9V39.1Z" fill="black"/>
  <path d="M156.8 39.1H154.5V26.6H150.4V24.3H160.9V26.6H156.8V39.1Z" fill="black"/>
  <path d="M168 39.1H165.7V24.3H168V39.1Z" fill="black"/>
</svg>